<?xml version="1.0" encoding="utf-8"?>
<!-- Generator: Adobe Illustrator 25.2.0, SVG Export Plug-In . SVG Version: 6.00 Build 0)  -->
<svg version="1.1" id="Vrstva_1" xmlns="http://www.w3.org/2000/svg" xmlns:xlink="http://www.w3.org/1999/xlink" x="0px" y="0px"
	 viewBox="0 0 504.6 122" style="enable-background:new 0 0 504.6 122;" xml:space="preserve">
<style type="text/css">
	.st0{fill:#FFFFFF;}
	.st1{fill:#FF0049;}
</style>
<g>
	<g>
		<path d="M179.8,48.8c-8.1-8.3-21.5-8.5-29.8-0.3c-4.1,4-6.4,9.5-6.3,15.3c-0.2,11.5,9.1,21,20.6,21.2c0.2,0,0.4,0,0.6,0
			c5.6,0.1,11.1-2.1,15-6.2v5.5h5.5V43.2h-5.5L179.8,48.8z M176,52.7c6.2,6.1,6.2,16.1,0.1,22.3c0,0,0,0-0.1,0.1
			c-6.2,6.1-16.2,6-22.4-0.2c-2.9-2.9-4.5-6.9-4.5-11c0-8.7,7-15.7,15.7-15.7C169,48,173,49.7,176,52.7z"/>
		<rect x="196.5" y="11.9" width="5.4" height="72.3"/>
		<path d="M251.2,73.4l-4.9-2.3l-0.4,0.6c-2.1,3.3-4.4,5.6-7,6.7c-2.2,0.9-4.6,1.3-7,1.3c-5,0-8.9-1.5-11.8-4.5
			c-2.6-2.8-3.9-6.6-4.1-11.4h37v-0.8c0.2-5.6-2-10.9-6.1-14.7c-4.1-3.8-9.5-5.8-15.1-5.7c-11.3-0.4-20.9,8.5-21.3,19.8
			c0,0.5,0,0.9,0,1.4c-0.3,11.4,8.8,20.9,20.2,21.2c0.4,0,0.7,0,1.1,0c2.3,0,4.7-0.3,6.9-1c5.2-1.6,9.5-5.2,11.9-10L251.2,73.4z
			 M217,58.4c2.6-7,7.5-10.5,15-10.5c3.5-0.1,7,1,9.9,3.1l0,0c2.6,1.7,4.4,4.4,5.1,7.4H217z"/>
		<polygon points="270.7,63.5 284.3,43.2 277.9,43.2 267.4,58.9 256.8,43.2 250.3,43.2 264,63.6 250,84.3 256.6,84.3 267.4,68.3 
			278.1,84.3 284.6,84.3 		"/>
		<path d="M330.9,42.6c-4.8,0-8.4,1.4-11,4.2V11.9h-5.5v72.3h5.5V57.8c-0.1-2.7,1.1-5.3,3.3-7c2.2-1.8,4.9-2.8,7.7-2.8
			c7.3,0,10.9,3.8,10.9,11.7v24.6h5.5v-25C347.3,48.3,341.8,42.6,330.9,42.6z"/>
		<path d="M390.5,48.8c-8.1-8.3-21.5-8.5-29.8-0.3c-4.1,4-6.4,9.5-6.3,15.3c-0.2,11.5,9.1,21,20.6,21.2c0.2,0,0.4,0,0.6,0
			c5.6,0.1,11.1-2.1,15-6.2v5.5h5.5V43.2h-5.5V48.8z M386.6,52.7c6.2,6.1,6.2,16.1,0.1,22.2c0,0-0.1,0.1-0.1,0.1
			c-6.2,6.1-16.2,6-22.3-0.2c-2.9-2.9-4.5-6.9-4.5-11c0-8.7,7-15.7,15.7-15.8C379.6,48,383.6,49.7,386.6,52.7L386.6,52.7z"/>
		<polygon points="422.8,43.2 413.6,43.2 413.6,25.9 408.1,25.9 408.1,43.2 402.7,43.2 402.7,48.7 408.1,48.7 408.1,84.3 
			413.6,84.3 413.6,48.7 422.8,48.7 		"/>
		<path d="M458.7,48.8c-8.1-8.3-21.5-8.5-29.8-0.3c-4.1,4-6.4,9.5-6.3,15.3c-0.2,11.5,9.1,21,20.6,21.2c0.2,0,0.4,0,0.6,0
			c5.6,0.1,11.1-2.1,15-6.2v5.5h5.5V43.2h-5.5L458.7,48.8z M459.5,63.8c0.1,4.2-1.6,8.3-4.6,11.2c-6.2,6.1-16.2,6-22.4-0.2
			c-2.9-2.9-4.5-6.9-4.5-11c-0.1-4.2,1.6-8.3,4.6-11.2c6.2-6.1,16.1-6.1,22.2,0.1l0,0C457.8,55.6,459.5,59.6,459.5,63.8z"/>
		<rect x="475.3" y="11.9" width="5.4" height="72.3"/>
		<path d="M122,61c0,33.7-27.3,61-61,61S0,94.7,0,61C0,27.3,27.3,0,60.9,0C94.6,0,121.9,27.3,122,61L122,61"/>
		<path class="st0" d="M59.2,55.1c-3.9-4.8-9.7-7.7-15.9-7.6c-11.1-0.2-20.2,8.7-20.4,19.8c0,0.2,0,0.4,0,0.6
			C22.8,78.9,31.7,88,42.8,88.2c0.2,0,0.3,0,0.5,0c6.1,0.1,12-2.6,15.8-7.5v6.8h4.1V61.8c-0.1-3,1.2-5.8,3.5-7.7
			c2.3-1.9,5.2-2.9,8.2-2.9c7.8,0,11.7,4.2,11.7,12.5v23.8h3.9v-1.3c-0.3,0.3-0.5,0.5-0.7,0.6c-0.4,0.4-0.9,0.7-1.5,0.4
			c-0.5-0.3-0.8-1-0.6-1.6c0.2-1.8,1.2-3.4,2.8-4.4V63.4c0-10.7-5.2-16-15.6-16c-5.5,0-9.4,1.9-11.8,5.8V16.7h-3.9V55.1z M59.2,72.5
			c-0.8,2.7-2.2,5.1-4.3,7.1c-3.1,3.1-7.3,4.9-11.7,4.8c-4.4,0.1-8.6-1.7-11.7-4.9c-6.5-6.4-6.5-16.9-0.1-23.4c0,0,0,0,0.1-0.1
			c3.1-3.1,7.3-4.9,11.7-4.8c4.4-0.1,8.6,1.7,11.7,4.9c2,1.9,3.5,4.3,4.3,7c0.4,1.5,0.6,3.1,0.6,4.6C59.9,69.3,59.7,70.9,59.2,72.5z
			"/>
		<path d="M90.5,83.2c-0.6,0.8-1,1.8-1,2.9c0.4-0.3,0.7-0.6,1-0.9v1.1c-0.3,0.3-0.5,0.5-0.7,0.6c-0.4,0.4-0.9,0.7-1.5,0.4
			c-0.5-0.3-0.8-1-0.6-1.6c0.2-1.8,1.2-3.4,2.8-4.4V83.2z"/>
		<path class="st1" d="M96.1,83.4c-0.2,0.2-0.3,0.5-0.5,0.7l0,0c-0.6,0.8-1.5,1.7-2.1,2.3l1.2-5.2c0.1-0.3,0-0.6-0.1-0.7
			c-0.4-0.4-0.9-0.6-1.5-0.5c-1,0.2-1.9,0.6-2.7,1.1c-1.5,1-2.5,2.6-2.8,4.4c-0.2,0.6,0.1,1.3,0.6,1.6c0.6,0.3,1,0,1.5-0.4
			c0.2-0.1,0.4-0.4,0.7-0.6c0.9-0.9,1.7-2,2.4-3.1c-0.4,1.6-0.9,3.5-1.3,5c-2,1.6-3.7,3.5-5.3,5.5c-0.7,1-2.2,3.3-0.9,4.5
			c0.6,0.4,1.5,0.4,2.1,0c3.3-2,4.8-7.1,5.8-10.8c0.7-0.6,1.3-1.3,1.9-2c0.5-0.5,0.9-1.1,1.2-1.7C96.8,83,96.5,82.9,96.1,83.4z
			 M87.3,96.6c-1.5,1.5-1.5,0.4-1.2-0.7c0.8-2.8,4-5.8,5.3-6.7C90.4,91.9,89.1,94.4,87.3,96.6z M90.5,85.1c-0.3,0.3-0.6,0.6-1,0.9
			c0-1,0.4-2.1,1-2.9c0.7-1.1,1.7-2.1,2.7-2.1C92.6,82.6,91.7,84,90.5,85.1z"/>
		<path d="M93.2,81.1c-0.6,1.5-1.5,2.9-2.7,4c-0.3,0.3-0.6,0.6-1,0.9c0-1,0.4-2.1,1-2.9C91.2,82,92.2,81.1,93.2,81.1z"/>
		<path class="st1" d="M107.7,71c0.2-0.3,0.2-0.3,0-0.5c-0.6-0.6-1.3-0.3-1.8,0.4c-1.7,2.4-3.2,6.5-4.5,10.3
			c-2.6-1.8-4.8,0.5-5.7,2.9l0,0c-0.1,0.4-0.2,0.7-0.3,1.1v0.1c-0.2,0.8-0.1,2.5,0.7,2.9c0.5,0.2,0.7,0.1,1-0.1
			c1.2-1.2,2.6-3.5,3.8-5c-0.2,1.1-0.4,2.2-0.4,3.3c0.1,1.5,1.1,2.4,2.4,1.2c1.2-1.3,2.3-2.7,3.3-4.1c0.7-0.9,0.4-1.2-0.4-0.3
			c-0.9,1.2-1.8,2.3-2.9,3.3c-1,1-1,0.5-1-0.2C102.2,82,104.9,75.7,107.7,71z M96.7,87.2c0.3-2.2,2.3-6.6,4.3-5.3
			C99.8,83,97.9,86.3,96.7,87.2L96.7,87.2z"/>
		<circle class="st1" cx="299.1" cy="79.3" r="7"/>
	</g>
	<g>
		<path class="st1" d="M355.9,95.2c-1,0.2-2.6-0.2-2.1-3c0-0.8-0.3-0.7-0.7-0.5c-2.8,2.2-4.8,5.4-5.5,8.9c-0.1,0.5-0.1,0.6-0.7,0.6
			c-1.3,0-1.6-1.5-1.5-2.9c0.3-3.2,1.2-6.3,2.4-9.3c0.7-1.4,2-1.6,3.7-1.3c0.4,0,0.6,0.2,0.3,0.7c-0.8,1.4-1.5,2.8-2,4.3
			c2.6-2.3,3.8-3.3,4.4-3.8s1.6-0.5,1.8,0.2c0.3,1.1-0.4,2.6-0.5,3.8c-0.3,2.4,1.7,0.2,2.2-0.5s1.1-0.5,0.6,0.3
			C357.8,94,357,94.8,355.9,95.2"/>
		<path class="st1" d="M369.1,88.8c-3,4.4-5,10.5-4.6,11.7s4.6-5.6,6.4-7.8c0.5-0.7,1.3-0.7,0.9,0.2c-1.8,2.9-3.7,5.7-5.9,8.3
			c-0.6,0.8-1.7,1-2.6,0.4c-0.1-0.1-0.2-0.1-0.3-0.2c-1.6-1.2-0.1-5.7,0.6-7.5c-1.4,1.8-2.8,3.9-4.2,4.6c-0.8,0.5-1.8,0.2-2.3-0.6
			c0-0.1-0.1-0.2-0.1-0.3c-0.7-1.7-0.5-3.7,0.5-5.3c1.3-2.4,3.8-3.9,6.5-4c0.8,0,1.4,0.4,0.9,1c-2.6,0.1-6,3.6-6.6,6.2
			s1,1.9,2.1,0.8c1.9-2.1,3.5-4.4,4.6-7C365.7,87.8,368.5,87.3,369.1,88.8"/>
		<path class="st1" d="M366.3,111.4c0,0.3-0.7,0.5-1.2,0.1c-0.3-0.7-0.4-1.5-0.2-2.2c0.7-5.9,5.4-18.7,9.3-22.5
			c0.4-0.4,2.8-0.4,2.8,0.3c0,0.2,0,0.4-0.1,0.6c-1,1.5-3.7,5.5-4.6,7.3c1.9-2,4.6-4.9,6.6-6c1.1-0.5,2.4,0.6,2.3,2.3
			c0,0.5-0.1,1-0.3,1.4c0.8-0.2,1.5-0.5,2.2-0.9c0.8-0.3,0.8,0.4,0.3,0.8c-0.9,0.4-1.9,0.8-2.9,1.1c-1.5,2.7-3.9,4.7-6.8,5.7
			c-1.4,0.4-2.8,0-2.6-2.3C369.4,101.5,367,107.2,366.3,111.4 M373.1,98.4c0.9-0.2,3.3-1.9,4.9-3.7
			C372.7,95.8,370.9,98.8,373.1,98.4 M372.6,96.1c2-1.6,3.8-2,5.8-2.6c0.6-1,1.1-2.7,0.7-3C378.2,89.8,373.8,94.1,372.6,96.1"/>
		<path class="st1" d="M381.8,99.9c-0.5-0.5-0.4-1.8-0.2-3.1c1.5-7.6,6.5-19,10.4-23.7c1.3-1.5,3.2-0.8,3-0.2
			c-4.7,7.6-8.5,15.8-11.2,24.3c2-2.8,4.8-6.2,6.5-7.2c1.5-0.8,2.8,0,2.9,1.2c0.1,1.7-2.3,5-3,7.3c-0.4,1.5,0.2,1.5,1.1,0.4
			c1.4-1.9,2.7-3.9,3.8-6c0.7-1.1,1-0.7,0.7,0c-1.1,2.5-2.4,4.9-4,7.1c-0.5,0.7-1.4,1-2.2,0.8c-0.7-0.3-1.2-0.9-1.3-1.7
			c-0.3-1.6,1.8-5.3,2.3-6.9c0.6-1.9-0.8-0.6-1.3-0.1c-1.7,1.7-3.2,3.5-4.6,5.4c-0.6,0.7-1.1,1.5-1.5,2.4c-0.1,0.3-0.3,0.6-0.5,0.5
			C382.3,100.3,382,100.1,381.8,99.9"/>
		<path class="st1" d="M396.5,99.4c1.5-1.2,3.3-4.3,4.8-6.6c0.7-1.2,1-0.7,0.6,0.2c-1.2,2.5-4.5,7.5-5.7,7.4c-1,0.1-1.9-0.7-1.9-1.7
			c0-0.1,0-0.2,0-0.3c0-3.1,0.7-6.1,2.2-8.8c0.3-0.6,3.6-0.8,2.5,1.4C398,92.9,396.5,96.1,396.5,99.4 M400.2,86.8
			c-0.3,0.8-3.4,0.5-2.4-0.9C398.6,84.8,400.8,85.3,400.2,86.8"/>
		<path class="st1" d="M406.6,91.3c-2.6,0.5-4.4,4.6-4.6,6.8c-0.1,1.3,0.5,1.9,2.2,0.8c3.1-1.8,5.3-4.6,7.8-6.3
			c0.8-0.5,1.2,0,0.3,0.7c-3.4,3.4-7.9,7.6-9.6,7.6c-1.2-0.1-2.3-0.9-2.7-2.1c-1.5-3.3,3-10.7,7-10.4c1.3,0.1,2.2,1.1,2.2,2.4
			c0,1.1-0.2,2.3-1.2,1.4C407.4,91.6,407.3,91.2,406.6,91.3"/>
		<path class="st1" d="M434.9,92.8c1.2-1.4,1.8-0.9,0.7,0.4c-1.5,2.1-3.2,4.2-5,6.1c-1.9,1.8-3.4,0.3-3.5-1.9c0-1.7,0.2-3.3,0.6-4.9
			c-1.7,2.2-3.9,5.7-5.6,7.4c-0.4,0.3-0.7,0.4-1.5,0.2c-1.3-0.6-1.3-3.2-1-4.3c0.8-4.1,4.4-9.5,9.1-6.3c2-5.6,4.3-11.8,6.8-15.4
			c0.8-1.1,1.9-1.4,2.8-0.6c0.2,0.2,0.2,0.2,0,0.7c-4.1,7-8.2,16.4-8.9,23.1c-0.1,1.2,0,1.8,1.4,0.3
			C432.2,96.2,433.6,94.6,434.9,92.8 M427.9,90.6c-2.9-1.9-6,4.6-6.4,8C423.4,97.1,426.2,92.2,427.9,90.6"/>
		<path class="st1" d="M438.9,98.3c2.2-1.3,3.9-3.2,5.2-5.4c0.4-0.9,1-0.6,0.7,0.3c-1.2,2.7-3.3,5-5.9,6.4c-1.5,0.7-3.2,0.6-4.1-0.5
			c-2.5-3.2,0.9-8.7,3.5-10.6c1.1-0.8,2.4-1.2,3.4-0.3c2.1,1.9-2.3,6.8-4.3,7.2C436.5,97,436.5,99.4,438.9,98.3 M438,94.2
			c1.6-0.9,2.7-2.5,2.9-4.3C439.6,91.1,438.6,92.5,438,94.2"/>
		<path class="st1" d="M444,92.6c-2-2.2,0.5-5.8,3-6.6c1.3-0.4,3.1-0.3,3.1,1.3c0,0.5-0.4,0.9-0.9,1c-1.6,0.3-4.4,1.8-3.4,3.3
			c0.4,0.6,2.5,2,3.1,3c1.2-0.7,2.4-1.3,3.5-2c0.6-0.4,1,0,0.5,0.5c-2.1,1.3-3.2,1.9-3.6,2.2c1.7,4.1-2.7,9.5-6.4,9.3
			c-1.4,0-2.2-2.4-1.9-3.6c0.8-2.8,5-4.7,6.7-5.7C447.1,94.3,445,93.8,444,92.6 M448.1,96.4c-2.8,1.9-6.9,5.4-5.7,6.5
			C443.8,102.9,448.6,98.5,448.1,96.4"/>
		<path class="st1" d="M453.4,99.4c1.5-1.2,3.4-4.3,4.8-6.6c0.7-1.2,1-0.7,0.6,0.2c-1.2,2.5-4.5,7.5-5.7,7.4c-1,0.1-1.9-0.7-1.9-1.7
			c0-0.1,0-0.2,0-0.3c0-3.1,0.7-6.1,2.2-8.8c0.3-0.6,3.6-0.8,2.5,1.4C455,92.9,453.4,96.1,453.4,99.4 M457.1,86.8
			c-0.3,0.8-3.4,0.5-2.4-0.9C455.6,84.8,457.7,85.3,457.1,86.8"/>
		<path class="st1" d="M464.4,92.4c-1.3,2.1-2.8,3.9-4.6,5.6c-0.5,0.7-1.4,0.9-2.2,0.5c-0.8-0.5-1.2-1.4-1-2.3
			c0.5-4.3,4.2-7.6,8.1-8.3c0.8-0.1,1.6,0.2,2.2,0.8c0.1,0.1,0.2,0.5,0.1,1l-1.7,7.7c1.4-1.4,2.7-3,3.9-4.6c0.5-0.8,1.1-0.6,0.6,0.3
			c-1.3,2-2.9,3.9-4.7,5.5c-1.5,5.6-3.7,13.3-8.7,16.3c-1,0.7-2.2,0.7-3.2,0c-2.1-1.8,0.2-5.2,1.3-6.7c2.3-3.4,5.2-5.8,7.9-8.2
			C463.1,97.7,463.7,94.7,464.4,92.4 M454.1,111.6c-0.4,1.7-0.3,3.3,1.9,1.1c2.7-3.3,4.7-7.1,6.1-11.1
			C460.1,102.9,455.3,107.4,454.1,111.6 M464.9,89.4c-3.1-0.1-6.1,6.2-5.6,7.4C461.8,94.9,463.8,92.3,464.9,89.4"/>
		<path class="st1" d="M478.4,99.2c0.1,0.7,3.5-4.3,5.5-6.5c0.6-0.7,1.1-0.4,0.7,0.3c-1,1.5-4.4,6.5-5.7,7.7c-0.5,0.7-1.3,0.9-2,0.6
			c-0.8-0.4-1.2-1.2-1-2.1c0.5-2.2,1.2-4.2,2.2-6.2c0.6-1.3,1.2-2.8,0-1.9c-2.9,2.3-6.2,6.6-8.3,9.5c-0.4,0.5-0.7,1-1.2,0.6
			c-1-0.4-1.5-1.5-1.2-2.5c0.2-2.1,2.4-8.1,4.7-10.9c0.5-0.6,1.9-0.4,2.6-0.1s0.2,0.6-0.1,1.2c-1.3,2.5-3.5,6.2-4.3,8.8
			c2.5-2.7,6.1-8,8.6-8.5c1.9-0.2,2.4,1.4,2.1,2.8C480.4,93.9,477.8,98.2,478.4,99.2"/>
		<path class="st1" d="M487.6,98.3c2.2-1.3,3.9-3.2,5.2-5.4c0.4-0.9,1-0.6,0.7,0.3c-1.2,2.7-3.3,5-5.9,6.4c-1.5,0.7-3.2,0.6-4.1-0.5
			c-2.5-3.2,0.9-8.7,3.5-10.6c1-0.8,2.4-1.2,3.4-0.3c2.1,1.9-2.2,6.8-4.3,7.2C485.2,97,485.2,99.4,487.6,98.3 M486.6,94.2
			c1.6-0.9,2.7-2.5,2.9-4.3C488.3,91.1,487.3,92.5,486.6,94.2"/>
		<path class="st1" d="M501.9,95.2c-1,0.2-2.6-0.2-2.1-3c0-0.8-0.3-0.7-0.7-0.5c-2.8,2.2-4.8,5.4-5.5,8.9c-0.1,0.5-0.1,0.6-0.7,0.6
			c-1.3,0-1.6-1.5-1.5-2.9c0.3-3.2,1.2-6.3,2.4-9.3c0.7-1.4,2-1.6,3.7-1.3c0.4,0,0.6,0.2,0.3,0.7c-0.8,1.4-1.5,2.8-2,4.3
			c2.6-2.3,3.8-3.3,4.4-3.8s1.6-0.5,1.8,0.2c0.3,1.1-0.4,2.6-0.5,3.8c-0.3,2.4,1.7,0.2,2.1-0.5s1.1-0.5,0.6,0.3
			C503.8,94,503,94.8,501.9,95.2"/>
		<path class="st1" d="M342.6,91.3c-1.3,2.1-2.8,3.9-4.6,5.6c-0.5,0.7-1.4,0.9-2.2,0.5c-0.8-0.5-1.2-1.4-1-2.3
			c0.5-4.3,4.2-7.6,8.1-8.3c0.8-0.1,1.6,0.2,2.2,0.8c0.1,0.1,0.2,0.5,0.1,1l-1.7,7.8c1.4-1.4,2.7-3,3.9-4.6c0.5-0.8,1.1-0.6,0.6,0.3
			c-1.3,2-2.9,3.9-4.7,5.5c-1.5,5.7-3.7,13.3-8.7,16.3c-1,0.7-2.2,0.7-3.2,0.1c-2-1.8,0.2-5.2,1.3-6.7c2.4-3.4,5.2-5.8,7.9-8.2
			C341.2,96.7,341.9,93.7,342.6,91.3 M332.3,110.5c-0.4,1.7-0.3,3.3,1.9,1c2.7-3.3,4.7-7.1,6.1-11.1
			C338.3,101.8,333.5,106.3,332.3,110.5 M343.1,88.2c-3.1-0.1-6.1,6.2-5.6,7.4C340,93.7,341.9,91.2,343.1,88.2"/>
	</g>
</g>
</svg>
